<svg xmlns="http://www.w3.org/2000/svg" width="800" height="800" viewBox="0 0 800 800"><title>brand</title><path d="M127.57773,180.822q3.04015,4.26714,13.39587,19.17811Q151.321,214.92518,166.848,236.52995q15.52861,21.61636,34.70341,47.79129,19.17977,26.184,38.96227,53.27217,19.78085,27.09807,38.66091,52.9675,18.86681,25.886,34.09737,47.18525Q328.48263,459.062,339.143,473.36029q10.65046,14.31156,13.09119,17.95941,1.21209-1.8231,10.95845-15.522,9.73146-13.70055,24.659-34.39874,14.91263-20.68991,33.78607-47.18525,18.86681-26.48209,38.96558-53.87987,20.0938-27.39861,39.27026-54.18621,19.1748-26.78263,35.30946-48.70532,16.12472-21.9169,27.09641-37.13752,10.95845-15.21069,14.00191-19.48279V644.13526H496.52544V417.654a47.60437,47.60437,0,0,1,1.2154-10.34909,48.189,48.189,0,0,0,1.21871-6.69959L352.23422,611.86927q-3.05505-3.65613-14.91594-20.09215-11.87248-16.43767-28.31181-38.96558-16.43271-22.518-34.7001-48.40065-18.26574-25.87108-34.39873-48.096Q223.768,434.095,212.50985,418.568q-11.27637-15.52861-12.47852-17.96272a46.37633,46.37633,0,0,0,1.2154,6.69959,48.01683,48.01683,0,0,1,1.2154,10.34909V644.13526H127.57773Z" style="fill:#fff"/><path d="M367.92916,285.55511l-42.0887-57.89444-.00285.00375-.00571-.00821L256.03,324.34149c.30832.42162,12.6169,17.28294,12.6169,17.28294l57.24639-79.283,29.50177,40.57278Z" style="fill:#fff"/><path d="M684.14055,712.63419H59.14122A19.08129,19.08129,0,0,1,40.0824,693.57394V107.99637A19.08129,19.08129,0,0,1,59.14122,88.93613H644.71737a19.08129,19.08129,0,0,1,19.05882,19.06024V493.75505h20.3492V107.99637a39.45253,39.45253,0,0,0-39.408-39.40659H59.14122a39.45253,39.45253,0,0,0-39.408,39.40659V693.57394a39.45253,39.45253,0,0,0,39.408,39.40659H712.50195Z" style="fill:#fff"/><path d="M638.05387,668.57323l.00085-19.0227a34.81532,34.81532,0,0,0,10.33165-2.13135,22.45479,22.45479,0,0,0,8.19928-5.32877,23.67465,23.67465,0,0,0,5.33035-9.01959,40.29706,40.29706,0,0,0,1.88639-13.03614l.00428-95.76534,20.33387.00046-.00431,96.25785a53.55844,53.55844,0,0,1-3.52669,20.08753,44.054,44.054,0,0,1-9.67552,14.92173,41.76587,41.76587,0,0,1-14.59523,9.42849A55.29416,55.29416,0,0,1,638.05387,668.57323Z" style="fill:#fff"/><path d="M779.01352,530.99549l-7.21649,16.398a111.74294,111.74294,0,0,0-13.61046-3.936,58.42385,58.42385,0,0,0-12.46311-1.47606q-10.00452-.00023-15.825,3.93534-5.82221,3.93535-5.82116,10.00241a10.19839,10.19839,0,0,0,4.34452,8.5273,46.97064,46.97064,0,0,0,10.90546,5.9038Q745.884,572.975,753.511,575.68a67.1249,67.1249,0,0,1,14.1845,6.96922,37.49076,37.49076,0,0,1,10.90524,10.8232q4.34154,6.56077,4.34416,16.72617a34.493,34.493,0,0,1-2.86973,14.26608,29.31859,29.31859,0,0,1-8.61041,10.98693,41.40464,41.40464,0,0,1-14.5126,7.13274,74.37613,74.37613,0,0,1-20.58069,2.5411,80.127,80.127,0,0,1-13.11807-.98356,77.7889,77.7889,0,0,1-10.57726-2.46016,64.03839,64.03839,0,0,1-8.28143-3.19844,62.844,62.844,0,0,1-6.23144-3.36081l8.69235-17.54584a64.2633,64.2633,0,0,0,14.75872,5.82092,56.01957,56.01957,0,0,0,13.938,2.05025,57.03972,57.03972,0,0,0,7.62578-.65563,37.89136,37.89136,0,0,0,9.10167-2.45972,23.43171,23.43171,0,0,0,7.62509-4.91967,10.72244,10.72244,0,0,0,3.1978-8.03462,11.82618,11.82618,0,0,0-4.34448-9.42892,44.07407,44.07407,0,0,0-10.90543-6.56q-6.56069-2.86567-14.18456-5.65762a86.47932,86.47932,0,0,1-14.18364-6.64132,37.47687,37.47687,0,0,1-10.90529-9.51116q-4.34685-5.65739-4.34426-14.34833a31.876,31.876,0,0,1,2.45965-12.21659,31.00432,31.00432,0,0,1,7.46206-10.7407,38.25406,38.25406,0,0,1,12.46352-7.70695,47.81383,47.81383,0,0,1,17.62821-2.95115,70.592,70.592,0,0,1,12.3806,1.06607q5.984,1.06878,10.74144,2.37808a80.24842,80.24842,0,0,1,7.87058,2.54175Q778.35419,530.8313,779.01352,530.99549Z" style="fill:#fff"/><path d="M545.60067,188.6336,504.1643,131.63772l-.00285.00375-.00571-.008-193.373,267.821q6.5711,9.0762,12.53982,17.38821L504.21712,166.3185l28.80947,39.62.01285.018c4.789-6.55914,8.96415-12.31054,12.56694-17.31487Z" style="fill:#fff"/><polygon points="633.257 309.19 596.628 258.813 596.628 293.411 633.257 343.787 633.257 309.19" style="fill:#fff"/></svg>